<svg xmlns="http://www.w3.org/2000/svg" viewBox="0 0 512 512" role="img" aria-label="dropfinder">
  <rect width="512" height="512" rx="88" fill="#0a0b0d"/>
  <path d="M104 264c0-73 49-124 118-124 21 0 42 5 58 16V80h72v352h-66l-3-27c-18 21-43 33-73 33-62 0-106-51-106-122v-52Zm72 26c0 48 21 78 56 78 30 0 51-22 51-57v-44c0-34-21-57-51-57-35 0-56 30-56 80Z" fill="#f1f3f5"/>
  <path d="M332 150c0-48 31-78 82-78 14 0 27 2 39 6v58c-8-2-15-3-22-3-18 0-27 9-27 27v24h49v59h-49v189h-72V243h-30v-59h30v-34Z" fill="#9da4ae"/>
</svg>
